<svg xmlns="http://www.w3.org/2000/svg" xmlns:xlink="http://www.w3.org/1999/xlink" data-name="Layer 1" preserveAspectRatio="xMidYMid meet" version="1.0" viewBox="-3.7 -0.7 507.2 435.8" zoomAndPan="magnify" style="fill: rgb(0, 0, 0);" original_string_length="20764"><g id="__id52_s08yb3cx8j"><path d="M495.57168,404.01227c-4.32092,4.59216-11.83313,6.98877-17.38049,3.84411-1.19361,7.62378-8.03443,13.41724-15.38965,15.39289-10.421,2.79882-21.03583-1.8891-30.33869-6.43525-2.3977,5.726-11.37463,7.00275-15.35614,2.3501-3.42279,3.92462-9.37915,4.2959-14.43176,3.61426-8.00842-1.08051-15.92554-4.00214-23.6969-6.15125q-13.29913-3.67776-26.59814-7.35547c-7.65546-2.11706-18.67255-4.22735-24.88623-10.27691.6643,1.28674,1.38812,2.54327,1.9779,3.76929a18.916,18.916,0,0,1,2.0661,10.484c-1.75409,15.71979-18.25311,21.89747-32.09576,21.33381a75.85626,75.85626,0,0,1-42.64783-15.89167c-8.82,3.822-20.33539,6.28553-28.42529-.33935-4.93115-4.038-7.62519-10.89612-5.77869-16.84229-7.7793,1.78308-16.56488-3.28241-18.804-10.99334-8.78522,7.19128-23.68781,3.09283-28.62641-6.82032a10.78835,10.78835,0,0,1-8.3388,5.33533,10.60342,10.60342,0,0,1-7.90149-2.77411c-.86573,7.57239-6.27033,14.66351-13.92176,16.44348-8.98944,2.09125-18.58508-3.64514-21.66906-12.13067-8.395,8.67285-21.38019,15.1314-33.35035,10.76367a24.565,24.565,0,0,1-12.895-11.25434c-.33557.52887-.69043,1.04877-1.07855,1.55109-8.03283,10.39533-22.42566,8.99628-31.23211.36194-9.30488-9.123-9.66987-22.743-5.58246-34.3913-6.2182,2.01429-14.12006-2.1499-15.9842-8.48633a10.63093,10.63093,0,0,1-11.5755,1.408c-5.05725-2.675-6.67584-9.26171-4.22863-14.21508a1.57528,1.57528,0,0,1,.28973-.40412C1.72,327.14117-2.46506,315.03222,3.10616,305.14215c4.051-7.19147,12.92273-11.94739,20.88312-9.31055,1.043-6.83594,6.48261-12.77685,13.51044-13.73944a16.341,16.341,0,0,1,16.16846,8.38214,11.49839,11.49839,0,0,1,10.56115-2.693c.25476-5.07715,5.54871-9.3642,10.56189-8.75879a12.33723,12.33723,0,0,1,9.85028-13.55768c-4.75384-8.75262-.03387-20.93689,9.254-24.37933a23.85846,23.85846,0,0,1,9.41589-40.83545,16.28861,16.28861,0,0,1-1.55273-7.488,16.67668,16.67668,0,0,1,.65283-4.09466c.524-1.76941,1.37384-3.04267,1.38593-4.92481.0542-8.44586-.7959-16.92462-.96924-25.37091-.212-10.32861.78723-23.77533,10.75262-29.65106,6.7995-4.009,18.01032-4.13043,22.07367,3.83966a26.20826,26.20826,0,0,1,1.88629,6.70892c.40491,1.9469.79554,4.692,2.71589,5.77369,3.06213,1.72509,5.56634-2.05842,6.96832-4.21857,2.23346-3.44141,4.87689-9.47608,9.10779-10.52222a44.2077,44.2077,0,0,1-4.70942-9.48865c-1.33374-3.77093-1.49011-7.84533-2.92315-11.52526-8.43-21.64832,8.24316-48.24091,30.844-51.29169a6.63916,6.63916,0,0,1,1.71332-5.58716c2.86334-3.33948,7.79376-3.02789,10.92468-5.92773,2.557-2.36805,4.06323-5.84259,6.18042-8.59266a43.99216,43.99216,0,0,1,7.69147-7.83886c5.36816-4.20728,11.91083-7.08747,18.82373-7.03437,11.50763.08808,23.021,10.57593,21.55884,22.34565,15.08551-2.17414,29.87042,13.1911,26.83758,28.21411a10.41585,10.41585,0,0,1,8.90924,9.28668,34.06626,34.06626,0,0,1,29.66285,21.34c4.68237,12.17883,1.05151,26.73663-8.243,35.7193,11.08344,9.50054,15.16352,25.63726,10.475,39.34216a6.24,6.24,0,0,1,2.83075.68933c.82989-4.1698,3.2561-9.22778,6.93811-8.70972.62079-9.304,11.52576-15.09967,20.39154-13.32245,11.74469,2.35425,17.087,15.40973,18.58008,26.19a17.08734,17.08734,0,0,1,17.42639,6.65649c4.02826,5.73474,3.5423,13.57147-.35144,19.17468a31.82717,31.82717,0,0,1-6.87946,55.77344,9.87509,9.87509,0,0,1-4.41345,12.8139,32.7889,32.7889,0,0,1,9.93067,26.61005,16.63919,16.63919,0,0,1,3.34668,30.01819,16.788,16.788,0,0,1,4.97625,19.28485,31.8083,31.8083,0,0,1,16.45441,17.78644c6.74164-1.51,13.83136,2.398,16.82336,8.4176,2.17951-4.9621,6.26545-9.087,11.90808-9.69714a12.71406,12.71406,0,0,1,7.95795,1.89184,20.7111,20.7111,0,0,1,1.60455-6.80932c4.91785-11.63636,18.53754-15.08741,29.62519-10.37891,9.57934,4.06781,15.21393,13.28351,16.96881,23.17963a12.49733,12.49733,0,0,1,8.30408-5.02118,1.61389,1.61389,0,0,1,1.93255,1.09729C500.45779,384.20239,502.84542,396.28149,495.57168,404.01227ZM392.00082,285.54321a11.37368,11.37368,0,0,0-1.60181,6.80591,16.234,16.234,0,0,0,1.15442,4.94385,1.8019,1.8019,0,0,0-.93219,1.02758c-2.16174,5.69239,1.72223,11.81452,6.82306,14.28168a22.64917,22.64917,0,0,0,8.98028,2.05109c3.0915.12689,6.52033-.057,9.2063-1.76557a8.54956,8.54956,0,0,0,3.062-3.2547,9.05433,9.05433,0,0,0,.72681-4.52038c-.012-1.11536.59857-1.38556,1.63977-1.678,1.22473-.34381,2.50226-.45276,3.7016-.89227,5.04675-1.84949,9.23444-7.56165,7.45636-13.07007-1.423-4.40857-6.69373-7.50244-11.14471-6.20178-.42353-3.52405-1.40442-7.2735-4.193-9.50208-4.16314-3.32709-10.21277-1.3222-12.5246,3.24115a11.747,11.747,0,0,0-1.21063,5.04767,9.09685,9.09685,0,0,0-6.49811-.12134A8.98292,8.98292,0,0,0,392.00082,285.54321ZM178.92593,34.38177c4.45965,1.3971,9.19867-.826,13.0639-2.898,3.63977-1.95105,7.55713-4.68945,9.279-8.596,1.00794-2.28692.97882-5.10955-.98645-6.90228a4.09646,4.09646,0,0,0-2.98315-1.11242,8.61581,8.61581,0,0,0,.17981-2.13593,12.65841,12.65841,0,0,0-2.95215-7.0437C193.05062,3.7774,191.331,1.5086,188.94228.728a5.44162,5.44162,0,0,0-6.25586,2.84125,7.21176,7.21176,0,0,0-.88391,3.56439c-.14392-.08679-.28534-.17779-.43548-.254a5.15554,5.15554,0,0,0-5.93762.63281c-2.92756,2.7622-1.85852,7.66491,1.00817,9.98822.20447.16565.41657.31708.62983.46637A9.31511,9.31511,0,0,0,172.547,25.3479,9.26675,9.26675,0,0,0,178.92593,34.38177Z" style="fill: rgb(221, 219, 236);"/></g><g id="__id53_s08yb3cx8j"><path d="M498.92153,374.80243a2.09409,2.09409,0,0,0-2.48926-1.48633,12.8108,12.8108,0,0,0-7.94726,4.35937c-2.18067-10.627-8.35547-18.78613-17.06152-22.48242a25.06856,25.06856,0,0,0-19.05176-.38672,20.148,20.148,0,0,0-11.22949,11.03028,21.16217,21.16217,0,0,0-1.58008,6.1748,13.08131,13.08131,0,0,0-7.5752-1.55957c-5.00293.541-9.29,3.83106-11.88672,9.08008-3.35156-5.76856-10.20019-9.07129-16.47461-7.87891a32.20076,32.20076,0,0,0-16.13281-17.46093,17.288,17.288,0,0,0-4.77539-18.98829,17.12015,17.12015,0,0,0-3.65332-30.39941,33.2642,33.2642,0,0,0-9.63086-26.16113,10.38419,10.38419,0,0,0,4.3916-5.4795,10.02751,10.02751,0,0,0-.13867-7.18359,32.31225,32.31225,0,0,0,6.88965-56.15625c3.89648-5.94873,3.94824-13.83447.07812-19.34424a17.54536,17.54536,0,0,0-17.415-6.96289c-3.13769-21.30713-15.24218-25.35254-18.90136-26.08642a19.49738,19.49738,0,0,0-15.22656,3.65039,14.06174,14.06174,0,0,0-5.71875,9.626l-.06641-.00048c-3.35352,0-5.75977,4.10009-6.77539,8.53466a6.78207,6.78207,0,0,0-1.792-.44043c4.39941-13.69726.166-29.52246-10.41993-38.90088,9.2793-9.27734,12.56153-23.9458,7.97461-35.87646a34.54418,34.54418,0,0,0-29.67675-21.63525,10.93625,10.93625,0,0,0-8.77539-9.228c1.22656-7.00928-1.2754-14.59033-6.752-20.3833-5.51465-5.834-12.98633-8.792-20.10937-7.99121a18.97274,18.97274,0,0,0-5.01075-14.14551,23.49054,23.49054,0,0,0-17.10742-8.124c-.06543-.00049-.13086-.00049-.19629-.00049-8.11572,0-14.77246,3.875-18.93994,7.14111a44.67763,44.67763,0,0,0-7.77881,7.92725c-.81787,1.0625-1.55273,2.24121-2.26318,3.38086a24.69509,24.69509,0,0,1-3.86084,5.15039,13.70374,13.70374,0,0,1-5.00293,2.5581c-2.13867.75244-4.34961,1.53125-5.96142,3.41113a7.31359,7.31359,0,0,0-1.90528,5.48877c-10.88476,1.645-21.04346,8.86573-27.25439,19.40235-6.17578,10.47705-7.4458,22.3208-3.48389,32.49414a34.95345,34.95345,0,0,1,1.52588,5.90869,39.77907,39.77907,0,0,0,1.3916,5.602,44.75778,44.75778,0,0,0,4.40381,9.03955c-3.24707,1.20557-5.52734,5.10059-7.38232,8.26856-.478.8164-.93067,1.59033-1.36817,2.26416-1.87744,2.8916-3.94141,5.38427-6.30322,4.05517-1.55664-.87695-2.00586-3.11963-2.3667-4.92138l-.31641-1.56641a21.91817,21.91817,0,0,0-1.71924-5.78662,12.08207,12.08207,0,0,0-7.64209-6.13721,20.15694,20.15694,0,0,0-15.13085,2.09424c-10.28711,6.06543-11.20362,20.07861-10.99854,30.0918.07422,3.62256.27637,7.3081.47119,10.87207.25977,4.75341.52881,9.66845.49805,14.48486a8.32143,8.32143,0,0,1-.77588,3.13721c-.20313.51758-.41309,1.05273-.58984,1.64941a17.08539,17.08539,0,0,0-.67286,4.21777,16.588,16.588,0,0,0,1.36573,7.19629,24.33154,24.33154,0,0,0-9.63623,40.97022,17.88362,17.88362,0,0,0-9.49366,10.30371,17.60134,17.60134,0,0,0,.39991,13.89258,12.89328,12.89328,0,0,0-9.67627,13.36719,10.11733,10.11733,0,0,0-6.91114,2.49511,9.82482,9.82482,0,0,0-3.52636,6.19824,11.93969,11.93969,0,0,0-9.98584,2.53321,16.763,16.763,0,0,0-16.36328-8.10254c-6.78565.92871-12.52051,6.59765-13.83936,13.58789-7.61719-2.19336-16.521,1.89941-20.92187,9.71191C.4103,308.90887-3.65562,319.92547,7.07192,335.8786a1.87169,1.87169,0,0,0-.11816.20605c-2.66016,5.38379-.62549,12.19727,4.44287,14.87891a11.118,11.118,0,0,0,11.55566-1.02441,13.35038,13.35038,0,0,0,6.39649,7,13.32765,13.32765,0,0,0,9.06445,1.3916c-4.3916,13.333-2.17236,25.99511,6.00928,34.01758A24.15593,24.15593,0,0,0,62.55239,399.404a18.71876,18.71876,0,0,0,13.84815-7.46875c.21679-.28125.43164-.57813.64892-.89551a25.21524,25.21524,0,0,0,12.75733,10.7627c8.21533,2.99609,21.228,1.8164,33.33593-10.33008,3.52149,8.52832,13.20264,13.7539,21.96827,11.71484,7.21-1.67773,12.9331-8.17676,14.18164-15.97363a10.88116,10.88116,0,0,0,15.82421-2.5332,20.349,20.349,0,0,0,13.5293,9.49511,18.33094,18.33094,0,0,0,14.88184-2.82422c2.51513,7.23926,10.77588,12.08594,18.36474,10.80567-1.37939,5.71191,1.07666,12.41894,6.15918,16.58105,8.45948,6.92871,20.207,4.14746,28.67041.52735a76.55778,76.55778,0,0,0,42.69922,15.8164q.88917.03516,1.78613.03614c14.001-.001,29.13575-6.65821,30.82715-21.81446a19.41089,19.41089,0,0,0-2.11328-10.75586c-.2334-.48535-.4873-.97558-.751-1.4707,5.44824,4.07813,13.19335,6.09082,19.56347,7.74609,1.22461.31836,2.4043.625,3.5127.93165l26.59863,7.35449c2.1748.60156,4.40625,1.27734,6.56445,1.93066a111.9161,111.9161,0,0,0,17.19922,4.2334c4.56641.61719,10.72266.50684,14.498-3.37207a9.75946,9.75946,0,0,0,8.43066,2.46191,9.45334,9.45334,0,0,0,7.166-4.875c9.69629,4.7168,20,8.99317,30.22754,6.24414,6.71-1.80175,14.03222-7.15136,15.63183-15.11523,5.9502,2.90723,13.30957.05469,17.373-4.26172C503.58755,396.22235,500.77993,383.3327,498.92153,374.80243Zm-3.71387,28.86718c-3.94433,4.19043-11.16113,6.92969-16.7705,3.752a.49933.49933,0,0,0-.74024.35742c-1.23633,7.89746-8.4375,13.21875-15.02539,14.9873-10.05664,2.70313-20.3291-1.68164-29.98926-6.40136a.50051.50051,0,0,0-.68066.25586,8.34082,8.34082,0,0,1-6.61914,4.7539,8.60872,8.60872,0,0,1-7.89551-2.53613.5019.5019,0,0,0-.37793-.17481h-.002a.501.501,0,0,0-.377.1709c-3.43946,3.94532-9.50293,4.05176-13.98829,3.44825a111.384,111.384,0,0,1-17.043-4.2002c-2.16309-.65527-4.40039-1.332-6.58789-1.93652l-26.59864-7.35645c-1.1123-.30762-2.29687-.61523-3.52636-.93457-7.09571-1.84375-15.92579-4.13867-21.14356-9.21875a.50009.50009,0,0,0-.793.58789c.2627.50879.53418,1.0127.80371,1.51172.40918.75879.8125,1.50781,1.168,2.24512a18.45372,18.45372,0,0,1,2.01953,10.21094c-1.6914,15.167-17.56543,21.48339-31.57812,20.88964a75.56676,75.56676,0,0,1-42.36426-15.78808.49938.49938,0,0,0-.30469-.10352.50881.50881,0,0,0-.19922.041c-8.227,3.5664-19.749,6.41406-27.90869-.2666-5.01416-4.10645-7.3247-10.8125-5.61816-16.30762a.50008.50008,0,0,0-.58936-.63574c-7.55078,1.73242-16.0625-3.24317-18.21191-10.64551a.49912.49912,0,0,0-.33154-.33789.50654.50654,0,0,0-.46534.09082,17.17769,17.17769,0,0,1-14.61328,3.06933,19.15138,19.15138,0,0,1-13.24853-9.72558.50118.50118,0,0,0-.42823-.27735.49171.49171,0,0,0-.44824.24219,9.93857,9.93857,0,0,1-15.47851,2.44629.5003.5003,0,0,0-.82959.31641c-.88965,7.78027-6.457,14.36523-13.53858,16.01269-8.54052,1.98731-17.99658-3.31445-21.08593-11.81445a.49948.49948,0,0,0-.36524-.31836.51164.51164,0,0,0-.46387.1416C111.04067,402.54364,98.193,403.79852,90.14956,400.863a24.17342,24.17342,0,0,1-12.626-11.02148.49951.49951,0,0,0-.42236-.26367.5126.5126,0,0,0-.44043.23242c-.35938.56738-.70361,1.0625-1.05176,1.51367a17.74182,17.74182,0,0,1-13.12549,7.082,23.10468,23.10468,0,0,1-17.36084-6.77246c-8.08056-7.92285-10.12207-20.584-5.46093-33.86719a.49977.49977,0,0,0-.626-.6416,12.05657,12.05657,0,0,1-9.22021-1.06933,12.1534,12.1534,0,0,1-6.13038-7.082.49988.49988,0,0,0-.79638-.2461,10.15253,10.15253,0,0,1-11.02442,1.35156c-4.60254-2.43359-6.44091-8.63964-4.01416-13.55078a1.07228,1.07228,0,0,1,.20117-.27832.50034.50034,0,0,0,.05323-.6289c-10.6709-15.65528-6.74561-26.3584-4.563-30.2334,3.6875-6.5459,12.28418-11.73535,20.29053-9.08106a.51155.51155,0,0,0,.41845-.04785.50112.50112,0,0,0,.23291-.35156c1.041-6.82227,6.54346-12.42383,13.084-13.31934a15.79587,15.79587,0,0,1,15.66455,8.13086.49857.49857,0,0,0,.77392.124,10.94781,10.94781,0,0,1,10.10108-2.57715.499.499,0,0,0,.62158-.459,8.67748,8.67748,0,0,1,3.22315-6.07324,9.00324,9.00324,0,0,1,6.77929-2.21484.48178.48178,0,0,0,.41944-.14844.49945.49945,0,0,0,.13476-.42383,11.79515,11.79515,0,0,1,9.44092-12.98828.50077.50077,0,0,0,.355-.73145,16.48488,16.48488,0,0,1-.65039-13.66113,16.75015,16.75015,0,0,1,9.63867-10.01074.49967.49967,0,0,0,.166-.835,23.35924,23.35924,0,0,1,9.21826-39.99024.49962.49962,0,0,0,.31055-.69043,15.68838,15.68838,0,0,1-1.50635-7.2583,16.07393,16.07393,0,0,1,.63281-3.9707c.16455-.55566.36621-1.0708.56152-1.56885a9.21425,9.21425,0,0,0,.84522-3.49511c.03125-4.84766-.23877-9.77832-.49951-14.54639-.19483-3.55566-.396-7.23242-.46973-10.83789-.20019-9.76221.6709-23.41113,10.50635-29.21a19.11568,19.11568,0,0,1,14.34326-1.99561,11.10972,11.10972,0,0,1,7.03125,5.63135,21.17426,21.17426,0,0,1,1.62891,5.52734l.31689,1.56787c.40088,2.00245.8999,4.49415,2.856,5.5962,3.50976,1.97558,6.29394-2.31885,7.6333-4.38184.44482-.68555.90576-1.47266,1.39209-2.30322,1.88281-3.21533,4.22558-7.21729,7.4165-8.00635a.50032.50032,0,0,0,.29834-.75928,43.81976,43.81976,0,0,1-4.65674-9.38086,38.98624,38.98624,0,0,1-1.35254-5.4624,35.72165,35.72165,0,0,0-1.57568-6.07812c-3.84961-9.88575-2.60547-21.41211,3.41358-31.62354,6.15283-10.4375,16.25781-17.53711,27.03125-18.99121a.5004.5004,0,0,0,.42334-.59522,6.1608,6.1608,0,0,1,1.60253-5.16162c1.4375-1.67675,3.42774-2.37744,5.53467-3.11914a14.6499,14.6499,0,0,0,5.35059-2.76757,25.42593,25.42593,0,0,0,4.02978-5.3545c.69776-1.11963,1.419-2.27685,2.20655-3.2998a43.6467,43.6467,0,0,1,7.604-7.75049c4.0752-3.19434,10.58643-6.98584,18.51123-6.92773A22.791,22.791,0,0,1,241.237,31.299,17.86759,17.86759,0,0,1,245.94058,45.3a.49809.49809,0,0,0,.146.41845.50482.50482,0,0,0,.42139.13819c6.98974-1.01075,14.41748,1.83593,19.87353,7.60693,5.38867,5.69873,7.78223,13.18066,6.40235,20.01269a.50023.50023,0,0,0,.42773.59522A9.88787,9.88787,0,0,1,281.6852,82.903a.49961.49961,0,0,0,.47168.4585A33.524,33.524,0,0,1,311.37954,104.382c4.51074,11.73144,1.16992,26.19824-8.124,35.18017a.49964.49964,0,0,0,.02246.73926c10.74511,9.21045,14.99218,25.16553,10.32715,38.80029a.49969.49969,0,0,0,.4707.66211,5.74982,5.74982,0,0,1,2.60351.6333.50045.50045,0,0,0,.71973-.34668c.85938-4.31543,3.20508-8.75244,6.37891-8.312a.49506.49506,0,0,0,.38476-.10693.50435.50435,0,0,0,.1836-.355,12.97951,12.97951,0,0,1,5.37207-9.40137,18.47464,18.47464,0,0,1,14.42187-3.46435c13.94727,2.79638,17.44434,20.43066,18.1836,25.76855a.49679.49679,0,0,0,.209.34131.50689.50689,0,0,0,.39258.0791,16.54707,16.54707,0,0,1,16.91015,6.45508c3.72168,5.29834,3.57715,12.94775-.35253,18.60205a.49944.49944,0,0,0,.11621.68994,31.32659,31.32659,0,0,1-6.77149,54.90479.49851.49851,0,0,0-.26074.68652,8.9344,8.9344,0,0,1,.31348,6.89453,9.26685,9.26685,0,0,1-4.50293,5.249.49987.49987,0,0,0-.123.8086,32.23729,32.23729,0,0,1,9.7793,26.20117.49941.49941,0,0,0,.32812.51758,16.13985,16.13985,0,0,1,3.249,29.126.5009.5009,0,0,0-.04395.81543,16.23843,16.23843,0,0,1,4.82617,18.69825.50031.50031,0,0,0,.25.64648A31.22282,31.22282,0,0,1,402.84048,372.403a.50079.50079,0,0,0,.57812.31446c6.26758-1.40821,13.25781,2.10058,16.26563,8.15136a.51458.51458,0,0,0,.46.27735.50075.50075,0,0,0,.44629-.29883c2.38965-5.44238,6.583-8.86914,11.5039-9.40137a12.16678,12.16678,0,0,1,7.64063,1.82129.50058.50058,0,0,0,.76172-.39551,20.08341,20.08341,0,0,1,1.56738-6.64551,19.1579,19.1579,0,0,1,10.68359-10.49218,24.049,24.049,0,0,1,18.28516.3789c8.67871,3.68555,14.75488,11.998,16.67188,22.80664a.50061.50061,0,0,0,.89453.21094,11.91465,11.91465,0,0,1,7.96972-4.82422c.4336-.05859,1.22461.01953,1.376.709C499.75845,383.34051,502.49868,395.92059,495.20766,403.66961ZM391.57778,285.27606a11.83926,11.83926,0,0,0-1.67773,7.10742,16.628,16.628,0,0,0,1.03515,4.69824,2.403,2.403,0,0,0-.78222,1.06153c-2.27539,5.99511,1.89941,12.40722,7.07324,14.90918A22.875,22.875,0,0,0,406.404,315.153c.48731.01953.998.03321,1.52344.03321a14.803,14.803,0,0,0,7.97168-1.877,9.06975,9.06975,0,0,0,3.24024-3.45117,9.56083,9.56083,0,0,0,.78027-4.75c-.00781-.69922.19531-.88867,1.27441-1.19238.4961-.13965,1.001-.23828,1.50489-.33789a14.72023,14.72023,0,0,0,2.23437-.56543c5.25977-1.92774,9.63379-7.89063,7.75977-13.69336-1.47559-4.57422-6.69629-7.627-11.19532-6.6709-.40234-2.96191-1.33007-6.89258-4.30566-9.27051a8.06914,8.06914,0,0,0-6.86621-1.56347,9.53455,9.53455,0,0,0-6.417,4.96972,11.98685,11.98685,0,0,0-1.23047,4.56446,9.61109,9.61109,0,0,0-6.20117.11718A9.47924,9.47924,0,0,0,391.57778,285.27606Zm5.23731-2.86914a8.775,8.775,0,0,1,2.957-.50879,8.19092,8.19092,0,0,1,3.17676.61914.50049.50049,0,0,0,.69531-.44727,11.23932,11.23932,0,0,1,1.15722-4.835,8.52314,8.52314,0,0,1,5.73731-4.44336,7.0696,7.0696,0,0,1,6.02832,1.36719c2.19336,1.75293,3.46777,4.667,4.00977,9.1709a.49958.49958,0,0,0,.63671.41992c4.13282-1.20019,9.14649,1.59571,10.52832,5.876,1.69629,5.25586-2.3291,10.67969-7.15234,12.44726a13.60577,13.60577,0,0,1-2.084.52344c-.53028.10547-1.06055.21-1.582.35645-1.10547.31152-2.01954.68945-2.00391,2.166a8.6753,8.6753,0,0,1-.67285,4.28907,8.05879,8.05879,0,0,1-2.88477,3.05761c-2.68652,1.71-6.17383,1.79981-8.917,1.6875a21.87788,21.87788,0,0,1-8.7832-2.001c-4.77735-2.31055-8.64844-8.1875-6.57325-13.65332a1.30606,1.30606,0,0,1,.666-.748.50091.50091,0,0,0,.2627-.64453,15.68428,15.68428,0,0,1-1.11915-4.791,10.82216,10.82216,0,0,1,1.5254-6.5039A8.48646,8.48646,0,0,1,396.81509,282.40692ZM178.77651,34.85907a10.21367,10.21367,0,0,0,3.07617.459c3.46875,0,7.00586-1.58838,10.37354-3.39355,4.93945-2.64795,8.04687-5.5376,9.5-8.835,1.23437-2.8003.80029-5.73389-1.10693-7.47364a4.58551,4.58551,0,0,0-2.728-1.22461,8.863,8.863,0,0,0,.0874-1.67773,12.99436,12.99436,0,0,0-3.05566-7.3252l-.07032-.0913c-1.52685-1.98194-3.25732-4.22852-5.75488-5.04395-2.84961-.93018-5.60058.84082-6.84814,3.07227a7.41564,7.41564,0,0,0-.90918,2.98632,5.59893,5.59893,0,0,0-6.2544.83692,6.1951,6.1951,0,0,0-1.88867,4.82666,8.20423,8.20423,0,0,0,2.92578,5.91406c.022.01758.04395.03565.06592.05274a9.77807,9.77807,0,0,0-4.1416,7.38037A9.77877,9.77877,0,0,0,178.77651,34.85907Zm-5.73-9.48584a8.785,8.785,0,0,1,4.27735-6.977.50009.50009,0,0,0,.03027-.83887c-.20361-.14258-.40625-.28711-.60156-.44531a7.173,7.173,0,0,1-2.55567-5.17432,5.17405,5.17405,0,0,1,1.57569-4.06152,4.6498,4.6498,0,0,1,5.36816-.5503c.10547.05323.20557.11524.30615.17676l.09717.05908a.49988.49988,0,0,0,.7583-.42627,6.68639,6.68639,0,0,1,.82031-3.32226c1.04834-1.874,3.32911-3.37109,5.66455-2.60986,2.20411.72021,3.83448,2.83642,5.273,4.7041l.0708.09131A12.0423,12.0423,0,0,1,196.97964,12.76a8.10005,8.10005,0,0,1-.17041,2.0122.50074.50074,0,0,0,.50439.60108,3.54836,3.54836,0,0,1,2.63184.98144c1.9248,1.75635,1.66943,4.5083.86572,6.33155-1.35937,3.085-4.32227,5.81884-9.05762,8.35693-4.1792,2.24023-8.60791,4.13574-12.67822,2.86182A8.753,8.753,0,0,1,173.04653,25.37323ZM307.50747,182.02948a.49973.49973,0,1,1-.61719.78613c-3.09765-2.43115-8.06347-2.5625-12.07617-.31885-3.27734,1.83252-6.11328,5.11768-8.42969,9.76367a.4987.4987,0,0,1-.44726.27686.49067.49067,0,0,1-.22266-.05273.49924.49924,0,0,1-.22461-.67041c2.40723-4.82911,5.38086-8.25782,8.83594-10.19043C298.74966,179.14911,304.04946,179.31268,307.50747,182.02948ZM284.73891,226.989a.5.5,0,0,1-.31738.63184.49987.49987,0,0,1-.63183-.31739c-1.99414-6.02734-8.11329-10.87744-16.36719-12.97509a41.2275,41.2275,0,0,0-36.23145,8.36474.50028.50028,0,0,1-.64648-.76367,42.23519,42.23519,0,0,1,37.124-8.56982C276.25552,215.5412,282.63735,220.63641,284.73891,226.989Zm-55.96582-.25684a.4999.4999,0,1,1-.9541-.29882,4.40777,4.40777,0,0,0-1.686-4.53125,9.60654,9.60654,0,0,0-5.07422-1.79688c-3.55811-.41894-8.33545.36035-10.06641,3.91211a.50009.50009,0,0,1-.89941-.4375c1.96094-4.02344,7.1958-4.916,11.082-4.46875a10.53842,10.53842,0,0,1,5.584,2.01172A5.41923,5.41923,0,0,1,228.77309,226.73211ZM99.571,317.00946A17.17534,17.17534,0,0,0,74.60171,319.989a.50038.50038,0,0,1-.4043.20508.5004.5004,0,0,1-.40332-.79492,18.17806,18.17806,0,0,1,26.42334-3.15332.50028.50028,0,0,1-.64648.76367Zm34.38476-.56348a.501.501,0,0,1-.48681.5127.51263.51263,0,0,1-.51319-.48731,9.68377,9.68377,0,0,0-4.97558-7.78027,15.35857,15.35857,0,0,0-9.52344-1.61817,22.0526,22.0526,0,0,0-18.11572,16.167.49992.49992,0,0,1-.48536.38183.54521.54521,0,0,1-.11816-.01367.50084.50084,0,0,1-.36816-.60449,23.08536,23.08536,0,0,1,18.96337-16.92285,16.33148,16.33148,0,0,1,10.14893,1.74511A10.70166,10.70166,0,0,1,133.95571,316.446Z" style="fill: rgb(0, 0, 0);"/></g></svg>