<svg xmlns="http://www.w3.org/2000/svg" xmlns:xlink="http://www.w3.org/1999/xlink" preserveAspectRatio="xMidYMid meet" version="1.0" viewBox="0.0 0.0 5000.0 2593.7" zoomAndPan="magnify" style="fill: rgb(35, 19, 53);" original_string_length="6292"><g id="__id93_s08yb3cx8j"><path d="M1305.3 1383.1L1305.3 1383.1z" style="fill: inherit;"/></g><g id="__id94_s08yb3cx8j"><path d="M2993.8 809.7L2993.8 809.64 2993.6 812.66z" style="fill: inherit;"/></g><g id="__id95_s08yb3cx8j"><path d="M3274.5 293.55L3274.5 297.55 3273.7 293.59z" style="fill: inherit;"/></g><g id="__id96_s08yb3cx8j"><path d="M5000 2593.7L71.449 2593.7 0 2232 269.82 2065.2 244.25 1934.1 429.36 1819.6 424.61 1793.3 454.46 1774.9 425.62 1652.6 525.66 1604.2 478.86 1553.2 475.79 1503.8 536.58 1494.5 540.97 1392.7 541.84 1300.3 541.37 1285.4 542.39 1263.9 543.34 1241 554.03 1180.2 564.21 1242.2 566.54 1256 574.83 1240.8 574.9 1240.1 584.09 1180.2 590.45 1212.1 590.56 1211.9 589.87 1197.7 599.99 1194.6 614.44 1168.1 618.34 1153.3 653.11 1096.4 652.66 1059 652.66 977.43 642.03 969.66 653.79 954.3 674.98 862.1 694.76 954.27 707.95 969.66 696.47 978.34 697.08 1028.7 697.08 1053.4 795.37 1050.1 796.05 960.43 794.61 952.38 790.55 951.02 789.87 907.17 832.34 635.9 874.78 907.16 873.11 945.59 867.61 950.86 867.22 953.96 868.15 1053.6 909.55 1057.5 958.65 1054.8 958.56 977.73 947.62 969.66 964.43 954.27 980.56 862.1 1005.1 961.96 1003.9 963.74 1003.9 963.75 1000.3 979.39 1003 967.99 1003.1 967.99 1003.2 1059 1002.6 1102.1 1018.6 1129.5 1029.4 1065 1043.8 1151.6 1042.8 1165.8 1051.3 1168.8 1051 1183.6 1058 1197 1059.8 1201.8 1061.8 1205.4 1066.1 1180.2 1074.6 1227.7 1084.7 1245.4 1084.9 1240.2 1095.8 1180.2 1096.3 1183 1096.7 1180.2 1107.8 1240.4 1108.4 1264.1 1109.2 1279.8 1109.9 1300.9 1108.7 1335.3 1110.5 1392.7 1110.6 1395.3 1113.5 1395.3 1170.2 1395.7 1174.7 1395.7 1224.6 1395.3 1228.9 1395.6 1277.1 1395.6 1289.4 1395.7 1307.6 1395.6 1303.8 1395.6 1306.9 1290.2 1301.9 1282.5 1298.7 1279.5 1294.9 1271.7 1295.6 1236.7 1294.3 1198.1 1289.6 1188.1 1291.6 1164.4 1291.9 1157.7 1291.1 1154.3 1292 1153.7 1293.3 1109.9 1318.9 1107.5 1318.9 1099.6 1318.4 1080.1 1318.4 984.33 1312.6 864.77 1310.3 861.62 1295.4 849.52 1289.9 840.1 1290.3 677.62 1296.7 678.03 1296.8 678.03 1290.3 677.61 1283.6 677.19 1277.9 662.45 1275.5 660.94 1272.3 650.62 1300.3 622.94 1365.1 422.2 1366.3 415.83 1367.9 413.44 1370 407.08 1379 374.92 1381.8 366.36 1381.8 361.44 1384 359.45 1384.2 359.03 1386.8 351.6 1386.8 343.31 1386.8 330.72 1380.4 329.12 1374.4 310.9 1367.5 311.1 1360.1 295.78 1359.6 279.93 1354.9 279.93 1354.6 220.7 1354.9 167.13 1352 159.67 1371.2 76.245 1382.9 128.92 1389.7 102.78 1401.1 155.26 1408.8 118.32 1427.3 215.98 1500.7 0 1582.3 253.19 1585.8 258.37 1586 261.48 1586 261.5 1590.2 271.2 1588.1 271.58 1615.4 359.36 1616.8 361.44 1620.7 372.47 1619.6 372.87 1640.7 440.72 1633.2 415.67 1694.9 609.4 1724.8 652.5 1723.6 662.45 1718.4 677.19 1708.4 677.81 1710.8 809.79 1719.2 810.04 1804.8 802.83 1804.8 799.27 1804.4 767.06 1801.5 762.15 1804.2 754.32 1804.1 747.68 1803.9 744.99 1803.4 723.45 1830.6 561.4 1857.8 723.46 1860.2 744.48 1858 744.74 1858.3 802.8 2015.9 810.04 2069.3 806.25 2079.6 802.46 2083.1 993.37 2089.4 998.8 2083 1007 2083 1101.3 2090.1 1102.3 2090.1 1098.6 2091.2 1074.5 2089.9 1071.4 2085.7 1067.2 2086.9 1064.2 2104.8 1031.3 2141.1 862.58 2140.9 861.77 2141.4 861.07 2182.3 671.41 2232 899.77 2258.4 758.05 2286.6 902.02 2286.6 916.83 2348 1142 2338.8 1107 2367.7 1109.9 2368.4 1150.1 2370 1158.6 2369.5 1170.4 2375.8 1187.5 2368.2 1196.4 2368.3 1198.3 2368.3 1229.6 2367.6 1274.1 2363.7 1280.6 2360.6 1282.7 2355.1 1289.4 2355.4 1301.6 2359.7 1301.8 2359.8 1301.8 2413.9 1300.1 2471.7 1300.1 2471.5 1262.9 2471.5 1225.6 2471.5 1212.1 2469.8 1163 2469.4 1162.8 2464.6 1163.9 2463.7 1161.9 2461 1161.8 2460.3 1160.8 2459.5 1160.7 2456.8 1155.1 2456.8 1113.8 2455 1100 2451.9 1091.9 2453.9 1064.2 2455.6 1023 2475.6 1036.4 2476.1 1023 2478.8 1024.8 2479.1 1023.9 2479 1024.9 2479 1025 2534.9 778.66 2545.2 824.19 2555.5 778.66 2610.9 1024.2 2611.3 1024 2611.2 1023.9 2611.3 1023.9 2612.6 1023 2612.9 1032.8 2613.8 1036.9 2633.2 1023 2633.8 1047 2644.9 1047 2657.7 1064.1 2657.7 1021.8 2657.9 986.82 2657.6 855.68 2656.7 667 2659.8 648.34 2723.3 566.24 2887.3 566.13 2888.4 493.12 2879.4 464.22 2892.2 434.15 2925.5 267.29 2949.7 383.04 3026.1 395.8 3061.5 256.18 3073.3 312.19 3083.1 344.63 3081.4 350.7 3091.1 396.7 3123.8 389.64 3140.7 390.66 3142.5 380.96 3140.7 377.53 3134.9 370.68 3137.1 358.48 3136.9 359.21 3137.6 331.22 3138.6 292.64 3156.1 302.79 3157.8 292.64 3159.7 294.17 3159.7 293.55 3159.9 294.27 3161.9 295.81 3217.9 48.234 3274.5 297.55 3274.5 297.78 3275 298.08 3277 306.14 3295.6 292.64 3296.7 331.6 3295.2 344.38 3299.7 369.94 3298.1 373.31 3296.5 385.38 3293.7 410.79 3293.5 454.35 3294.1 456.78 3296 457.24 3292.7 468.68 3287.5 473.84 3287.5 473.85 3287.4 474 3287.3 473.97 3286.3 474.96 3286.8 488.61 3285.9 488.61 3278.2 875.33 3273.4 875.33 3269.9 875.84 3269.7 897.29 3259.2 897.29 3254.3 924.38 3253 924.38 3246.1 948.08 3239.4 957.58 3239.1 959.41 3239.2 1089.1 3239.2 1097 3609.4 1093.8 3609.4 985.05 3605.2 973.1 3643.9 853.71 3686.3 973.1 3675.9 994.79 3676.9 1094 3840.9 1094.9 3844.6 1077.2 3848.5 1094.9 3968.7 1095.6 3968.7 891.4 3968.5 727.63 3982.5 647.49 3983.9 619.98 3989.9 622.49 3990 621.55 3990.2 622.65 3994.1 624.27 3994.6 621.55 3996.1 629.2 3995.2 624.75 3996.8 625.42 3997.5 621.55 3998.4 626.09 4000.3 626.9 4067.7 328.71 4071.1 344.93 4075.2 328.71 4138.2 628.21 4140.6 628.13 4145.7 627.38 4146.8 621.55 4147.9 627.05 4148.6 626.94 4149.7 621.55 4150.6 626.64 4153.3 626.24 4154.3 621.55 4155.1 625.99 4156.3 625.8 4157.2 621.55 4157.9 625.57 4162.7 624.84 4163.3 656.34 4163.3 656.36 4175.8 727.63 4175.1 766.28 4175 891.4 4175 1111.1 4174.1 1173.1 4174.1 1173.1 4176.3 1223.2 4170.9 1393.3 4169.8 1470.1 4223.8 1470.1 4233.7 1455.2 4281.7 1455.2 4279.2 1408.5 4283.6 1345.6 4275 1307.7 4286.5 1276.8 4284.7 1236.1 4301.5 1199.7 4338.7 1173.5 4370.9 1122.7 4401.1 1173.1 4440.2 1199.7 4456.6 1236.1 4457.8 1276.4 4463.2 1307.7 4459.5 1337.6 4460.4 1349.9 4462.9 1408.5 4472.1 1619 4626.3 1722.6 4634.1 1761.6 4801.8 1874.7 4856.6 2146.8 4834.2 2156 4935 2232z" style="fill: inherit;"/></g></svg>